<svg xmlns="http://www.w3.org/2000/svg" width="824" height="498" viewBox="0 0 824 498" version="1.1"><path d="M 363.436 21.061 C 333.758 23.348, 305.627 36.162, 286.428 56.141 C 269.715 73.532, 261.431 91.742, 259.426 115.500 C 258.870 122.088, 257.980 125.089, 254.389 132.500 C 249.111 143.392, 245.858 154.510, 243.108 171.059 C 239.058 195.428, 238.500 204.979, 238.617 248 C 238.731 289.716, 239.797 309.846, 242.037 312.544 C 244.688 315.738, 254.213 313.591, 259.043 308.711 C 261.357 306.373, 261.696 304.921, 262.807 292.621 C 264.231 276.858, 268.366 259.423, 273.002 249.636 C 278.714 237.574, 288.038 230.311, 290.827 235.750 C 294.888 243.671, 291.372 270.481, 284.502 283.975 C 281.506 289.858, 278.799 292.262, 271.603 295.427 C 264.962 298.347, 263.078 300.279, 263.032 304.215 C 262.988 307.964, 265.968 309.315, 273.138 308.796 C 284.595 307.968, 306.415 294.451, 324.250 277.133 L 336 265.724 336 270.652 C 336 274.920, 336.815 279.032, 339.571 288.672 C 340.091 290.491, 338.838 291.921, 331.846 297.485 C 311.565 313.626, 294.497 321.709, 269.500 327.011 C 251.834 330.758, 248.769 331.897, 246.328 335.622 C 243.789 339.497, 243.880 347.092, 246.500 350.040 C 249.984 353.961, 256.798 356.371, 264 356.231 C 270.391 356.106, 304.659 349.609, 347 340.495 C 358.825 337.950, 369.977 335.733, 371.781 335.569 C 373.586 335.405, 375.306 335.027, 375.604 334.729 C 376.880 333.453, 397.556 336.840, 444.500 346.015 C 500.747 357.008, 501.851 357.162, 515.082 355.835 C 532.526 354.085, 546.862 347.644, 555.725 337.575 C 560.384 332.282, 564 323.863, 564 318.307 C 564 315.965, 564.904 313.504, 566.562 311.330 C 571.765 304.508, 574.422 297.066, 574.671 288.619 C 574.898 280.869, 574.957 280.704, 578.201 278.743 C 589.868 271.689, 608.365 254.390, 617.340 242.140 C 622.360 235.289, 623.047 232.258, 620.171 229.655 C 617.208 226.973, 614.130 227.646, 610.665 231.731 C 598.875 245.629, 579.664 262.503, 569.855 267.575 L 566.765 269.173 549.312 251.836 C 539.713 242.301, 531.166 233.188, 530.318 231.584 C 528.183 227.545, 529.091 220.881, 532.359 216.596 C 535.285 212.760, 542.154 209.662, 546.605 210.170 C 550.235 210.584, 552.715 215.255, 553.296 222.769 C 553.718 228.225, 555 231.261, 555 226.803 C 555 221.368, 552.874 213.495, 550.814 211.302 C 548.167 208.485, 544.013 208.346, 538.500 210.890 C 529.049 215.252, 525.346 224.939, 530.050 233 C 532.112 236.536, 565.798 269.959, 567.325 269.986 C 569.013 270.015, 581.797 261.112, 590.645 253.744 C 595.675 249.556, 603.036 242.276, 607.003 237.565 C 610.970 232.854, 614.981 229, 615.917 229 C 619.059 229, 621.347 231.481, 620.675 234.159 C 619.772 237.756, 610.729 249.352, 602.010 258.092 C 594.868 265.252, 579.897 277.159, 575.500 279.176 C 573.736 279.985, 573.500 281.066, 573.500 288.318 C 573.500 295.598, 573.122 297.310, 570.207 303.231 C 564.170 315.493, 552.578 323.006, 539.712 322.994 C 530.714 322.986, 526.127 321.391, 521.339 316.603 C 514.289 309.552, 514.211 300.981, 521.129 293.476 C 524.987 289.290, 526.050 288.726, 543.957 281.353 L 547.413 279.929 529.226 262.215 C 508.796 242.315, 506.650 239.109, 506.656 228.500 C 506.663 217.864, 513.332 208.915, 525.843 202.757 C 531.750 199.848, 533.370 199.501, 540.979 199.512 C 547.816 199.522, 550.315 199.958, 553.624 201.718 C 561.805 206.071, 565.613 213.589, 564.773 223.727 C 564.285 229.609, 561.953 233, 558.395 233 C 557.132 233, 555.601 232.213, 554.992 231.250 C 554.349 230.235, 554.038 230.100, 554.251 230.929 C 554.895 233.431, 557.649 234.509, 560.676 233.445 C 564.880 231.966, 566.159 228.609, 565.700 220.261 C 565.176 210.734, 561.691 204.746, 554.520 201.055 C 550.333 198.900, 548.216 198.500, 540.983 198.500 C 533.085 198.500, 531.807 198.797, 524.783 202.266 C 515.112 207.042, 508.681 213.850, 506.387 221.740 C 504.561 228.023, 505.015 232.840, 508.114 240.044 C 510.609 245.842, 510.343 246.497, 500.206 259.554 C 492.047 270.062, 481.711 280.216, 474 285.296 C 467.877 289.329, 457.946 292.349, 453.777 291.444 C 447.936 290.176, 444 281.523, 444 269.951 C 444 265.036, 444.023 265, 447.250 264.983 C 458.502 264.923, 474.069 258.821, 482.073 251.335 C 491.680 242.349, 495.130 230.142, 490.400 221.878 C 487.956 217.609, 480.480 213.787, 473.428 213.202 C 454.660 211.646, 434.963 222.705, 427.256 239.127 C 421.008 252.438, 421.274 251.367, 420.741 265.326 L 420.441 273.152 415.046 279.629 C 405.316 291.308, 390.887 302.216, 380.687 305.604 C 373.338 308.045, 362.677 307.918, 356.911 305.321 C 344.699 299.822, 336.981 284.778, 337.015 266.540 C 337.066 238.772, 353.423 218.436, 378.630 214.800 C 398.586 211.922, 410.003 221.159, 405.525 236.561 C 401.444 250.601, 387.504 260.108, 366.179 263.394 L 358.500 264.577 358.198 270.354 C 357.632 281.191, 362.104 290.984, 368.332 292.547 C 372.407 293.570, 381.214 291.191, 388.074 287.213 C 395.222 283.069, 409.131 269.811, 416.426 260.189 C 419.058 256.718, 421.032 253.699, 420.814 253.480 C 420.595 253.262, 418.035 256.205, 415.125 260.021 C 402.609 276.432, 388.453 287.734, 376.815 290.606 C 371.152 292.003, 369.849 292.037, 367.373 290.850 C 365.793 290.093, 364.500 289.003, 364.500 288.430 C 364.500 287.856, 367.875 284.530, 372 281.040 C 391.588 264.464, 420.362 233.052, 435.618 211.589 L 442.434 202 466.753 202 L 491.071 202 493.036 197.417 C 494.116 194.896, 495 192.655, 495 192.435 C 495 192.216, 484.475 191.916, 471.612 191.768 L 448.224 191.500 470.654 162.500 C 482.990 146.550, 499.005 125.625, 506.241 116 C 513.477 106.375, 523.696 94.225, 528.949 88.999 C 537.235 80.757, 540.438 78.403, 553.134 71.229 C 561.183 66.680, 568.935 61.792, 570.360 60.367 C 573.895 56.833, 574.653 51.999, 572.542 46.470 C 568.823 36.732, 561.191 35.256, 546.500 41.435 C 527.191 49.555, 522.582 51.135, 515.174 52.171 C 506.608 53.370, 506.520 53.351, 456.500 40.006 C 417.525 29.608, 383.632 21.245, 378.500 20.759 C 375.750 20.499, 368.971 20.635, 363.436 21.061 M 345.500 38.109 C 315.212 42.477, 287.769 62.573, 275.489 89.378 C 272.585 95.716, 269 108.409, 269 112.351 C 269 113.557, 269.906 113.461, 274.250 111.799 C 280.843 109.277, 290.222 109.738, 295.226 112.830 C 305.540 119.205, 306.519 136.204, 297.966 160.435 C 296.335 165.058, 295 169.255, 295 169.762 C 295 171.530, 310.560 177.905, 318.959 179.580 C 328.809 181.543, 343.832 181.099, 353.500 178.557 C 374.727 172.978, 392.211 157.486, 399.758 137.571 C 400.672 135.159, 401.545 128.407, 401.900 121 L 402.500 108.500 407.250 108.195 L 412 107.890 412 116.004 C 412 139.243, 404.967 156.362, 389.474 170.831 C 381.375 178.395, 370.854 184.425, 359.500 188.012 C 350.579 190.830, 330.488 191.835, 319.227 190.026 C 311.067 188.715, 297.619 184.248, 293.817 181.584 C 290.343 179.151, 289.630 179.563, 286.607 185.750 C 282.626 193.897, 272.349 209.328, 265.676 217.176 L 260 223.852 260 235.581 L 260 247.310 263.836 241.405 C 268.475 234.266, 275.632 227.524, 281.310 224.946 C 286.033 222.802, 295.870 222.352, 299.316 224.122 C 309.567 229.389, 314.209 246.121, 310.640 264.936 C 309.760 269.577, 309.230 273.563, 309.463 273.796 C 309.696 274.029, 316.212 267.925, 323.943 260.232 C 331.674 252.538, 338 246.603, 338 247.041 C 338 249.287, 308.666 276.999, 307.511 275.845 C 307.271 275.604, 307.722 272.953, 308.515 269.953 C 312.128 256.285, 311.225 241.905, 306.168 232.584 C 302.661 226.119, 299.087 224.008, 291.640 224.004 C 280.743 223.997, 271.577 230.698, 262.832 245.065 C 259.609 250.361, 259.081 250.830, 258.478 248.932 C 258.101 247.744, 258.121 241.312, 258.522 234.639 L 259.251 222.506 264.186 217.107 C 275.852 204.342, 291.504 176.641, 297.940 157.367 C 305.590 134.461, 304.250 119.578, 293.997 113.554 C 288.985 110.610, 278.079 110.727, 272.277 113.786 C 248.660 126.240, 237.543 175.537, 239.419 259.500 C 240.186 293.880, 241.260 309.404, 243.017 311.520 C 245.690 314.741, 256.306 311.636, 259.370 306.737 C 260.143 305.501, 261.069 300.253, 261.439 295.005 C 263.806 261.451, 276.073 233, 288.173 233 C 290.237 233, 291.290 233.635, 291.900 235.250 C 296.262 246.781, 291.980 274.497, 283.880 287.169 C 280.576 292.338, 277.889 294.422, 271.729 296.596 C 266.516 298.435, 264 300.693, 264 303.533 C 264 307.208, 266.388 308.333, 272.927 307.740 C 284.806 306.663, 308.528 291.622, 326.250 273.929 C 334.665 265.528, 336.003 263.737, 336.024 260.848 C 336.038 259.006, 336.539 255.475, 337.138 253 C 337.738 250.525, 338.353 247.574, 338.505 246.442 C 338.845 243.914, 344.209 234.962, 348.783 229.288 C 352.984 224.077, 361.164 218.556, 368.751 215.812 C 372.999 214.275, 377.110 213.702, 384.500 213.616 C 393.123 213.516, 395.086 213.813, 398.756 215.773 C 401.097 217.024, 403.568 218.936, 404.247 220.023 C 404.926 221.111, 405.793 222, 406.175 222 C 406.557 222, 410.335 217.613, 414.571 212.250 L 422.272 202.500 402.537 202.229 C 386.059 202.002, 382.892 201.725, 383.343 200.550 C 383.640 199.775, 384.183 197.544, 384.549 195.590 L 385.216 192.038 407.320 191.769 L 429.424 191.500 451.462 161.348 C 479.861 122.492, 488.833 111.249, 503.500 96.133 C 518.761 80.405, 528.981 72.746, 546.500 63.905 C 554.200 60.020, 561.288 56.132, 562.250 55.265 C 564.400 53.330, 564.502 50.662, 562.490 48.992 C 560.036 46.955, 554.332 48.359, 540.883 54.311 C 512.933 66.679, 503.255 67.934, 478.500 62.398 C 474.650 61.536, 466.550 59.785, 460.500 58.505 C 454.450 57.225, 436.900 53.247, 421.500 49.665 C 366.330 36.833, 360.499 35.946, 345.500 38.109 M 98.238 88.110 C 75.904 91.831, 56.716 105.539, 47.466 124.380 C 43.042 133.391, 41.689 140.351, 42.180 151.578 C 42.537 159.743, 43 161.615, 46.314 168.320 C 52.254 180.339, 61.845 187.378, 76.517 190.486 C 85.237 192.333, 90.678 192.351, 99.122 190.562 C 113.706 187.470, 125.512 178.539, 131.270 166.241 C 133.923 160.574, 134.491 158.026, 134.832 150.250 L 135.239 141 132.222 141 L 129.205 141 128.842 149.250 C 128.426 158.715, 126.228 164.203, 120.065 171.162 C 108.877 183.796, 87.748 188.466, 70.798 182.051 C 58.473 177.385, 49.215 164.734, 48.249 151.236 C 46.363 124.881, 67.041 102.034, 96.485 97.939 C 104.464 96.829, 107.544 97.384, 160.500 109.479 C 171.500 111.991, 183.220 114.311, 186.544 114.634 C 193.902 115.349, 202.076 113.432, 213.317 108.357 C 222.658 104.140, 227.500 103.488, 227.500 106.449 C 227.500 107.902, 225.178 109.574, 218.395 113.008 C 213.387 115.543, 207.075 119.243, 204.368 121.230 C 192.851 129.684, 177.657 147.561, 153.572 180.994 L 145.643 192 132.429 192 C 121.301 192, 119.118 192.250, 118.607 193.582 C 117.027 197.699, 117.568 197.926, 129.661 198.218 L 141.322 198.500 133.018 209 C 128.452 214.775, 117.467 226.754, 108.608 235.620 C 84.562 259.684, 71.041 268.837, 53.336 273.033 C 37.438 276.801, 36.117 277.213, 34.643 278.866 C 32.840 280.888, 32.381 283.690, 33.288 287.138 C 34.030 289.957, 39.835 293, 44.474 293 C 45.812 293, 61.215 290.053, 78.704 286.450 C 96.192 282.848, 112.975 279.910, 116 279.921 C 119.025 279.932, 130.950 281.756, 142.500 283.976 C 192.640 293.610, 191.615 293.463, 200.155 292.219 C 216.882 289.781, 227.287 281.366, 228.622 269.196 C 229.318 262.855, 226.031 256.387, 220.500 253.214 C 214.514 249.779, 206.140 250.432, 199.748 254.830 C 194.719 258.289, 194.005 259.930, 196.594 262.078 C 197.944 263.198, 198.923 262.987, 202.991 260.700 C 211.535 255.898, 220.015 257.517, 221.819 264.295 C 224.330 273.732, 215.814 280.933, 201.908 281.133 C 198.934 281.176, 181.547 278.239, 163.272 274.606 C 144.663 270.906, 127.414 268, 124.065 268 C 117.262 268, 101.328 271.901, 71.500 280.868 C 47.971 287.941, 45.387 288.478, 41.667 287.063 C 37.569 285.505, 38.517 282.716, 43.511 281.641 C 66.019 276.796, 81.667 269.262, 102.967 253.013 C 118.293 241.321, 135.693 223.399, 148.333 206.284 L 154.452 198 169.191 198 C 182.739 198, 184.013 197.844, 184.965 196.066 C 186.991 192.280, 186.325 192.061, 171.938 191.777 L 157.876 191.500 176.008 168 C 205.443 129.852, 206.247 128.876, 211.483 124.974 C 214.242 122.918, 219.875 119.357, 224 117.061 C 232.830 112.147, 234 110.843, 234 105.920 C 234 96.750, 227.115 95.250, 213.269 101.403 C 208.741 103.415, 202.610 105.510, 199.644 106.058 C 193.773 107.143, 197.940 108.066, 138.500 92.521 C 116.478 86.762, 110.357 86.091, 98.238 88.110 M 647 88.545 C 621.010 94.086, 601.286 111.169, 594.596 133.932 C 592.298 141.753, 592.470 156.541, 594.941 163.574 C 598.806 174.569, 607.959 183.926, 618.875 188.040 C 643.995 197.506, 671.435 188.111, 682.133 166.381 C 684.973 160.613, 685.476 158.430, 685.830 150.352 L 686.239 141 683.245 141 L 680.251 141 679.818 149.250 C 679.452 156.217, 678.860 158.483, 676.015 163.821 C 668.451 178.011, 653.021 185.901, 635.082 184.752 C 620.324 183.806, 608.466 176.369, 602.530 164.337 C 594.706 148.478, 600.394 125.505, 615.420 112.279 C 621.899 106.576, 627.257 103.575, 636.610 100.410 C 648.917 96.245, 655.573 96.662, 685 103.440 C 719.534 111.396, 736.935 114.982, 741.040 114.992 C 746.387 115.004, 754.842 112.520, 764.958 107.965 C 774.559 103.642, 778.500 103.184, 778.500 106.391 C 778.500 107.767, 776.036 109.541, 769.473 112.891 C 748.107 123.799, 739.043 133.304, 704.049 181.500 L 696.788 191.500 683.214 192 L 669.640 192.500 668.914 195.220 L 668.189 197.940 680.271 198.220 L 692.353 198.500 683.935 209 C 672.341 223.460, 651.591 244.566, 639 254.704 C 625.919 265.236, 614.319 271.050, 600.528 273.983 C 588.517 276.537, 585.914 277.692, 584.228 281.210 C 582.182 285.479, 583.635 288.930, 588.386 291.088 C 590.649 292.115, 593.719 292.966, 595.209 292.978 C 596.699 292.990, 609.974 290.498, 624.709 287.441 C 666.429 278.784, 665.241 278.923, 678.328 281.173 C 684.473 282.229, 699.625 285.086, 712 287.522 C 740.151 293.064, 744.186 293.521, 752.355 292.099 C 761.282 290.544, 767.063 287.905, 772.482 282.910 C 785.588 270.829, 779.368 251, 762.473 251 C 757.303 251, 750.370 253.912, 746.999 257.501 L 744.969 259.662 746.987 261.488 C 748.950 263.264, 749.140 263.242, 753.888 260.657 C 764.162 255.066, 773 258.354, 773 267.768 C 773 271.575, 772.485 272.749, 769.642 275.431 C 765.699 279.150, 760.122 281.035, 752.780 281.132 C 749.876 281.170, 732.491 278.231, 714.148 274.601 C 695.804 270.970, 678.254 268.001, 675.148 268.001 C 668.059 268.003, 654.799 271.201, 625.500 279.976 C 598.726 287.994, 596.423 288.492, 592.667 287.063 C 588.569 285.505, 589.517 282.716, 594.511 281.641 C 612.206 277.832, 622.610 273.605, 638.412 263.804 C 660.070 250.372, 684.260 227.310, 700.364 204.743 L 705.176 198 720.113 198 L 735.050 198 736.025 195.435 C 736.561 194.024, 737 192.686, 737 192.462 C 737 192.238, 730.652 191.930, 722.893 191.777 L 708.785 191.500 721.576 175 C 728.611 165.925, 737.947 153.775, 742.322 148 C 757.637 127.783, 762.137 123.542, 775.500 116.727 C 782.734 113.038, 785 110.574, 785 106.395 C 785 101.722, 783.710 99.537, 780.058 98.024 C 776.411 96.513, 773.882 97.069, 763.833 101.589 C 750.259 107.694, 747.932 107.755, 727.875 102.526 C 671.561 87.845, 667.878 86.999, 660.637 87.079 C 656.712 87.123, 650.575 87.783, 647 88.545 M 279.326 122.187 C 274.207 124.662, 267.843 142.303, 264.492 163.307 C 263.067 172.242, 260.067 199.029, 260.020 203.250 C 260.009 204.213, 260.498 205, 261.107 205 C 261.716 205, 261.967 204.356, 261.665 203.569 C 260.753 201.194, 264.769 164.367, 266.670 157.659 C 267.103 156.135, 267.629 156.479, 269.732 159.659 C 271.128 161.772, 273.789 165.099, 275.645 167.052 L 279.020 170.605 274.633 179.618 C 272.220 184.575, 268.380 191.703, 266.099 195.458 C 263.818 199.213, 262.153 202.486, 262.399 202.732 C 262.645 202.978, 264.924 199.652, 267.463 195.340 C 280.177 173.754, 288.986 150.061, 289.774 135.336 C 290.246 126.506, 290.169 126.078, 287.677 123.586 C 284.928 120.837, 282.841 120.487, 279.326 122.187 M 279.093 123.647 C 277.799 124.554, 275.448 128.146, 273.868 131.631 L 270.995 137.966 272.962 143.143 C 275.118 148.815, 281.501 159, 282.901 159 C 284.376 159, 288.269 142.978, 288.773 134.828 C 289.220 127.608, 289.096 127.005, 286.669 124.578 C 283.658 121.567, 282.301 121.400, 279.093 123.647 M 460.715 215.040 C 448.064 217.167, 434.907 226.927, 428.680 238.805 C 423.354 248.966, 421.728 256.575, 422.229 269 C 423.086 290.268, 432.106 303.804, 447.556 307.012 C 466.917 311.031, 491.593 294.224, 513.078 262.385 C 515.785 258.373, 517.983 254.732, 517.962 254.295 C 517.942 253.858, 516.475 251.807, 514.702 249.738 L 511.480 245.975 504.990 255.238 C 496.726 267.032, 481.410 282.374, 473.069 287.213 C 466.042 291.290, 457.605 293.511, 452.992 292.498 C 447.100 291.204, 442.636 281.111, 443.198 270.354 L 443.500 264.577 451.439 263.354 C 461.394 261.819, 469.987 258.738, 476.734 254.283 C 487.071 247.458, 491.464 239.623, 490.800 229.198 C 490.413 223.123, 490.126 222.448, 486.651 219.444 C 480.845 214.425, 472.649 213.033, 460.715 215.040 M 379 223.117 C 372.506 225.688, 363.847 238.180, 361.038 249.032 C 360.402 251.489, 359.634 254.347, 359.331 255.382 C 358.838 257.071, 359.171 257.190, 362.586 256.550 C 375.852 254.061, 390.910 238.892, 390.978 227.950 C 390.990 225.998, 390.460 223.860, 389.800 223.200 C 388.373 221.773, 382.509 221.727, 379 223.117 M 464 223.118 C 460.716 224.421, 455.399 229.536, 452.298 234.377 C 449.556 238.658, 445.634 248.640, 444.643 253.861 L 444.006 257.222 447.698 256.529 C 460.739 254.082, 476 238.637, 476 227.884 C 476 225.968, 475.460 223.860, 474.800 223.200 C 473.372 221.772, 467.506 221.728, 464 223.118 M 376.883 225.859 C 370.028 230.207, 362.999 242.355, 361.258 252.865 C 360.732 256.040, 360.836 256.189, 363.101 255.508 C 376.353 251.521, 390 237.684, 390 228.233 C 390 222.285, 384.180 221.232, 376.883 225.859 M 462.871 225.006 C 458.112 227.521, 454.319 232.118, 450.911 239.500 C 447.493 246.904, 444.795 256, 446.016 256 C 446.516 256, 449.415 255.068, 452.459 253.929 C 465.575 249.022, 479.385 229.785, 473.800 224.200 C 472.042 222.442, 467.023 222.812, 462.871 225.006 M 515.474 260.783 C 500.459 283.578, 482.904 300.042, 467.146 306.107 C 460.048 308.839, 447.318 309.182, 441.860 306.790 C 432.121 302.520, 424.657 291.823, 421.546 277.677 C 420.934 274.893, 420.798 274.987, 411.882 284.408 C 396.294 300.879, 382.891 308.262, 368.500 308.303 C 359.869 308.328, 355.455 306.937, 350.240 302.549 C 347.285 300.062, 347.204 300.052, 344.870 301.880 C 340.008 305.689, 320.207 317.463, 310.031 322.596 C 297.172 329.082, 284.867 333.266, 269.298 336.446 C 254.554 339.458, 254 339.680, 254 342.584 C 254 345.820, 257.710 348.023, 264.173 348.624 C 270.005 349.166, 269.121 349.395, 316.500 335.051 C 347.942 325.531, 374.121 318.667, 385.638 316.921 C 396.121 315.333, 402.308 316.246, 461.064 328.053 C 485.574 332.978, 508.892 337.418, 512.882 337.919 C 529.670 340.027, 547.463 333.740, 552.550 323.903 L 553.998 321.103 550.299 322.649 C 548.098 323.568, 543.697 324.183, 539.433 324.166 C 528.541 324.123, 520.633 320.121, 516.872 312.748 C 515.726 310.503, 513.488 307.278, 511.899 305.583 C 510.310 303.887, 509.007 302.200, 509.005 301.834 C 509.002 301.468, 510.913 299.685, 513.250 297.872 C 515.587 296.060, 519.459 292.887, 521.853 290.822 C 524.247 288.756, 528.747 286.142, 531.853 285.012 C 543.335 280.833, 545.003 279.875, 544.013 278.025 C 543.512 277.088, 537.732 271.538, 531.170 265.693 L 519.240 255.065 515.474 260.783 M 363.250 264.807 C 359.021 265.114, 359 265.134, 359 269.057 C 359 271.226, 359.359 273, 359.797 273 C 360.775 273, 368.542 265.143, 367.935 264.768 C 367.696 264.621, 365.587 264.638, 363.250 264.807 M 642 305 L 642 321 651 321 C 659.933 321, 660 320.981, 660 318.500 C 660 316.090, 659.767 316, 653.500 316 L 647 316 647 302.500 L 647 289 644.500 289 L 642 289 642 305 M 662.667 289.667 C 662.300 290.033, 662 297.233, 662 305.667 L 662 321 671.570 321 C 680.922 321, 681.132 320.949, 680.820 318.750 C 680.529 316.706, 679.883 316.473, 673.750 316.204 L 667 315.909 667 302.454 C 667 290.074, 666.854 289, 665.167 289 C 664.158 289, 663.033 289.300, 662.667 289.667 M 688.620 290.520 C 686.618 291.208, 684.352 292.293, 683.583 292.931 C 679.315 296.473, 677.610 307.411, 680.464 312.931 C 682.950 317.738, 687.665 321, 692.126 321 C 696.127 321, 702 318.678, 702 317.097 C 702 316.628, 701.312 315.674, 700.470 314.975 C 699.290 313.996, 698.366 313.968, 696.423 314.853 C 692.446 316.665, 690.066 316.220, 686.923 313.077 C 680.637 306.791, 684.834 294.295, 692.914 295.241 C 694.886 295.472, 697.104 295.850, 697.843 296.081 C 699.774 296.684, 701.779 293.379, 700.350 291.950 C 698.319 289.919, 692.448 289.204, 688.620 290.520 M 542.853 294.855 C 534.850 298.039, 532 300.429, 532 303.955 C 532 307.501, 533.714 309, 537.766 309 C 541.999 309, 544.316 307.769, 546.892 304.152 C 549.026 301.154, 551.248 293.265, 550.145 292.599 C 549.790 292.385, 546.509 293.400, 542.853 294.855 M 126 294.880 C 112.407 299.328, 102.183 311.822, 97.260 330 C 94.626 339.727, 94.937 363.699, 97.835 374.354 C 105.718 403.335, 125.826 427.422, 153.840 441.442 C 171.907 450.485, 192.610 455, 216 455 C 241.224 455, 260.636 450.712, 303.587 435.652 C 338.070 423.561, 346.997 420.823, 347.010 422.331 C 347.031 424.858, 351.994 433.987, 355.391 437.748 C 357.430 440.005, 361.677 442.955, 365.238 444.589 C 370.771 447.127, 372.606 447.456, 381 447.418 C 388.479 447.385, 391.748 446.886, 396.365 445.073 C 415.328 437.628, 417.228 417.653, 399.790 409.068 C 391.417 404.946, 383.745 404.287, 369.135 406.433 C 362.884 407.351, 357.559 407.892, 357.301 407.635 C 356.571 406.905, 360.779 397.979, 363.590 394.293 C 370.438 385.315, 388.880 374.790, 405.628 370.301 C 414.543 367.911, 417.293 367.647, 434 367.577 C 454.485 367.492, 460.595 368.347, 476.596 373.539 C 509.820 384.321, 535.857 407.826, 553.980 443.397 C 558.805 452.867, 560.022 454.546, 562.256 454.810 C 564.168 455.037, 565.329 454.427, 566.558 452.552 C 568.191 450.059, 568.124 449.739, 564.284 441.741 C 542.923 397.249, 508.965 369.592, 463.688 359.812 C 449.914 356.837, 421.737 356.589, 409.204 359.334 C 386.768 364.247, 365.924 375.470, 356.027 387.966 C 352.135 392.880, 347.944 402.002, 347.270 407.024 C 346.749 410.910, 346.743 410.915, 339.124 413.149 C 334.931 414.379, 324.525 417.816, 316 420.786 C 279.153 433.627, 270.788 436.349, 258.500 439.493 C 240.208 444.175, 228.862 445.383, 209.644 444.698 C 158.854 442.885, 122.503 417.859, 108.410 375 C 105.868 367.270, 105.610 365.141, 105.557 351.500 C 105.506 338.164, 105.773 335.671, 107.960 329.026 C 113.395 312.513, 122.875 303.858, 135.656 303.737 C 147.743 303.623, 158.643 310.093, 162.852 319.878 C 164.024 322.603, 165.441 328.132, 166 332.166 C 166.749 337.571, 167.569 339.960, 169.119 341.250 C 171.801 343.482, 172.551 343.449, 175.010 340.990 C 177.149 338.851, 177.130 337.315, 174.816 325 C 172.505 312.698, 164.530 302.441, 153.218 297.222 C 148.524 295.057, 145.798 294.537, 138 294.323 C 132.775 294.180, 127.375 294.430, 126 294.880 M 123.176 297.092 C 112.183 301.434, 102.816 313.861, 98.372 330 C 95.694 339.725, 95.904 362.795, 98.765 373.175 C 108.053 406.878, 130.046 431.091, 163.701 444.666 C 178.202 450.516, 191.095 453.022, 210 453.667 C 237.808 454.615, 254.782 451.318, 296 436.961 C 325.393 426.723, 346.269 420.048, 347.166 420.603 C 347.545 420.837, 348.388 422.709, 349.041 424.764 C 353.506 438.812, 364.529 446.266, 381 446.374 C 391.912 446.446, 398.713 444.206, 404.498 438.636 C 414.779 428.735, 412.107 416.113, 398.298 409.358 C 393.637 407.077, 391.320 406.603, 384.594 406.556 C 375.774 406.495, 364.940 407.583, 359.856 409.041 C 358.083 409.550, 356.428 409.761, 356.178 409.512 C 355.928 409.262, 356.296 407.014, 356.995 404.518 C 361.676 387.801, 388.228 371.147, 416.880 366.957 C 427.291 365.435, 452.760 366.251, 462.500 368.419 C 488.379 374.178, 508.582 385.285, 527.020 403.886 C 538.582 415.551, 547.458 427.971, 555.065 443.130 C 557.747 448.474, 560.408 453.134, 560.979 453.487 C 563.081 454.786, 566 452.925, 566 450.287 C 566 446.742, 558.203 431.541, 550.209 419.500 C 542.219 407.465, 523.864 388.680, 513.227 381.649 C 480.061 359.729, 438.199 352.598, 401.049 362.540 C 373.127 370.012, 350.818 388.814, 348.419 406.897 L 347.803 411.546 327.151 418.336 C 315.793 422.070, 300.875 427.148, 294 429.619 C 262.048 441.103, 244.195 445.062, 221.314 445.740 C 197.501 446.445, 183.201 444.125, 164.247 436.482 C 141.382 427.262, 121.486 408.581, 111.814 387.249 C 97.097 354.793, 103.974 313.850, 125.728 304.408 C 131.414 301.940, 142.341 302.161, 148.445 304.868 C 160.084 310.028, 164.324 315.989, 166.846 330.739 L 168.515 340.500 171.507 340.500 C 174.310 340.500, 174.519 340.232, 174.806 336.279 C 175.230 330.437, 173.470 321.706, 170.609 315.458 C 167.374 308.391, 161.193 302.453, 153.151 298.688 C 144.250 294.520, 131.417 293.837, 123.176 297.092 M 534.250 300.115 C 532.472 301.943, 532.687 306.666, 534.582 307.393 C 537.896 308.665, 541.083 307.897, 544.234 305.067 C 546.769 302.790, 547.234 301.863, 546.309 300.926 C 544.550 299.142, 535.771 298.551, 534.250 300.115 M 625.332 327.790 C 615.156 331.426, 608.212 339.224, 605.884 349.628 C 605.129 353, 604.159 355, 603.279 355 C 600.339 355, 591.005 360.229, 586.991 364.125 C 575.084 375.680, 574.723 392.761, 586.083 407.105 L 589.198 411.038 585.500 415.132 C 580.475 420.693, 578.048 426.424, 578.022 432.790 C 577.972 444.896, 587.759 454.517, 609.783 464.012 C 619.943 468.393, 630.591 472.035, 632.915 471.925 C 633.787 471.884, 630.225 470.387, 625 468.599 C 593.500 457.819, 578.984 446.758, 579.010 433.554 C 579.022 427.451, 582.305 419.882, 587.375 414.270 L 590.944 410.320 587.942 407.445 C 586.291 405.863, 583.604 401.894, 581.970 398.625 C 576.701 388.080, 578.333 375.448, 586.104 366.619 C 589.903 362.303, 600.482 356, 603.927 356 C 605.067 356, 606.038 354.083, 607.262 349.418 C 610.127 338.492, 616.275 331.913, 626.853 328.453 C 638.142 324.761, 651.533 328.597, 661.913 338.498 C 672.400 348.501, 676.958 360.510, 676.985 378.205 L 677 387.909 680.750 388.490 C 697.227 391.042, 703.297 393.603, 712.026 401.685 C 720.304 409.348, 724.377 417.768, 724.855 428.204 C 726.164 456.801, 701.927 475.938, 664.338 475.987 C 655.639 475.998, 644.360 474.569, 636.598 472.471 C 634.965 472.030, 634.838 472.120, 636.026 472.876 C 636.865 473.411, 641.345 474.617, 645.982 475.557 C 657.341 477.858, 678.183 477.107, 688.993 474.007 C 704.786 469.478, 716.579 460.329, 722.366 448.115 C 725.287 441.949, 725.500 440.753, 725.500 430.500 C 725.500 420.360, 725.270 419.031, 722.564 413.500 C 720.949 410.200, 717.124 404.998, 714.064 401.940 C 705.800 393.683, 697.240 389.853, 681.750 387.483 L 678 386.909 678 377.165 C 678 361.366, 673.951 349.832, 664.801 339.566 C 654.789 328.333, 637.909 323.297, 625.332 327.790 M 627.885 335.318 C 625.897 336.063, 622.898 337.649, 621.221 338.843 C 617.836 341.253, 614 348.293, 614 352.094 C 614 354.366, 614.530 354.641, 620.831 355.633 C 634.923 357.852, 648.194 367.352, 657.964 382.215 C 661.429 387.486, 662.821 388.846, 664.439 388.539 C 665.573 388.324, 667.288 388.115, 668.250 388.074 C 669.781 388.009, 670 386.879, 670 379.049 C 670 363.547, 666.285 352.657, 658.131 344.255 C 650.036 335.913, 636.768 331.993, 627.885 335.318 M 628.558 336.432 C 623.034 338.484, 619.859 341.060, 617.266 345.594 C 614.064 351.195, 614.248 354, 617.818 354 C 621.621 354, 630.453 356.693, 636.209 359.608 C 642.613 362.850, 653.179 372.938, 658.248 380.649 C 661.974 386.316, 662.778 387, 665.712 387 L 669 387 669 379.136 C 669 364.347, 665.748 354.399, 658.104 345.806 C 650.513 337.273, 637.452 333.129, 628.558 336.432 M 602.766 363.644 C 592.622 367.152, 586.063 375.825, 586.022 385.783 C 585.993 392.771, 589.187 398.889, 596.670 406.180 C 602.181 411.548, 614.694 419.040, 618 418.949 C 618.825 418.927, 616.692 417.609, 613.260 416.020 C 605.813 412.574, 596.408 405.535, 592.628 400.579 C 588.274 394.870, 586.744 390.214, 587.191 384.029 C 588.588 364.717, 614.399 356.588, 634.267 369.203 C 641.393 373.728, 649.967 383.703, 655.836 394.298 C 661.929 405.296, 663.464 409.736, 661.847 411.684 C 659.831 414.113, 648.616 418.820, 642 420.013 C 636.151 421.068, 632.742 420.963, 622.610 419.420 C 619.857 419.001, 619.760 419.062, 621.766 419.947 C 625.643 421.659, 636.225 422.259, 642.500 421.124 C 645.800 420.528, 651.875 418.332, 656 416.245 C 663.030 412.689, 663.491 412.255, 663.362 409.312 C 663.074 402.775, 652.030 384.133, 643 374.942 C 634.978 366.777, 626.197 362.723, 615.655 362.319 C 609.991 362.102, 606.054 362.506, 602.766 363.644 M 679.649 404.626 C 678.766 409.507, 677.528 416.875, 676.897 421 C 675.370 430.990, 676.335 451.582, 678.725 460 C 680.554 466.442, 680.601 466.499, 684.035 466.371 C 692.533 466.055, 705.275 458.595, 711.697 450.175 C 721.288 437.600, 719.609 418.609, 707.867 406.867 C 702.958 401.958, 693.094 397.154, 686.262 396.345 L 681.253 395.751 679.649 404.626 M 680.638 405.645 C 677.711 421.347, 677.015 427.323, 677.042 436.500 C 677.070 445.623, 678.876 458.135, 680.921 463.371 C 681.921 465.931, 682.391 466.174, 685.271 465.620 C 690.745 464.567, 703.014 457.986, 707.074 453.926 C 716.244 444.756, 719.344 431.188, 714.936 419.507 C 710.693 408.263, 699.284 399.508, 686.134 397.405 L 682.289 396.791 680.638 405.645 M 696.656 411.133 C 695.642 411.722, 694.174 413.733, 693.393 415.602 C 689.614 424.646, 701.037 431.963, 708.025 424.975 C 710.948 422.052, 710.701 415.610, 707.545 412.455 C 704.901 409.810, 699.962 409.211, 696.656 411.133 M 696.635 413.073 C 694.602 414.671, 694 416.027, 694 419 C 694 421.973, 694.602 423.329, 696.635 424.927 C 698.084 426.067, 700.273 427, 701.500 427 C 702.727 427, 704.916 426.067, 706.365 424.927 C 708.398 423.329, 709 421.973, 709 419 C 709 416.027, 708.398 414.671, 706.365 413.073 C 704.916 411.933, 702.727 411, 701.500 411 C 700.273 411, 698.084 411.933, 696.635 413.073 M 365 415.865 L 356.500 417.540 356.614 421.270 C 356.772 426.447, 361.001 432.128, 367.292 435.614 C 371.955 438.198, 373.441 438.499, 381.500 438.493 C 388.865 438.487, 391.255 438.083, 394.655 436.271 C 402.962 431.843, 405.150 425.708, 400.425 420.093 C 395.381 414.098, 382.045 412.507, 365 415.865 M 367.196 416.504 C 355.664 418.594, 355.385 418.913, 358.956 425.914 C 364.623 437.021, 381.425 441.329, 394.463 435.018 C 402.152 431.296, 404.023 425.177, 399.008 420.161 C 393.946 415.099, 382.323 413.763, 367.196 416.504 M 602.607 423.250 C 602.263 424.488, 601.693 431.197, 601.341 438.160 L 600.700 450.820 606.821 453.910 C 610.188 455.609, 613.293 457, 613.721 457.001 C 614.150 457.001, 614.409 449.934, 614.298 441.296 L 614.097 425.590 609.798 423.340 C 604.351 420.489, 603.379 420.477, 602.607 423.250 M 603.374 425.814 C 602.994 427.841, 602.641 434.202, 602.591 439.949 L 602.500 450.399 607.970 453.147 C 610.978 454.658, 613.453 455.806, 613.470 455.697 C 613.486 455.589, 613.275 448.839, 613 440.699 L 612.500 425.898 608.283 424.013 L 604.067 422.128 603.374 425.814 M 645 427.522 L 639.500 428.617 639.511 442.558 C 639.518 450.768, 640.064 458.620, 640.839 461.657 L 642.155 466.814 648.262 467.889 C 651.620 468.481, 654.563 468.770, 654.802 468.532 C 655.040 468.294, 654.430 464.139, 653.447 459.299 C 652.447 454.381, 651.576 445.307, 651.472 438.726 C 651.369 432.250, 651.109 426.834, 650.893 426.689 C 650.677 426.545, 648.025 426.920, 645 427.522 M 644 428.882 L 640.500 429.500 640.167 438.500 C 639.849 447.110, 641.403 462.415, 642.829 464.724 C 643.202 465.326, 645.903 466.255, 648.831 466.787 L 654.155 467.755 653.502 465.152 C 651.514 457.231, 650.724 450.275, 650.618 439.757 C 650.489 426.914, 650.940 427.656, 644 428.882" stroke="none" fill="#10100d" fill-rule="evenodd"/><path d="M 0 249.001 L 0 498.002 412.250 497.751 L 824.500 497.500 824.752 248.750 L 825.004 0 412.502 0 L 0 0 0 249.001 M 0.492 249.500 C 0.492 386.450, 0.608 442.326, 0.750 373.670 C 0.892 305.013, 0.892 192.963, 0.750 124.670 C 0.608 56.376, 0.492 112.550, 0.492 249.500 M 363.436 21.061 C 333.758 23.348, 305.627 36.162, 286.428 56.141 C 269.715 73.532, 261.431 91.742, 259.426 115.500 C 258.870 122.088, 257.980 125.089, 254.389 132.500 C 249.111 143.392, 245.858 154.510, 243.108 171.059 C 239.058 195.428, 238.500 204.979, 238.617 248 C 238.731 289.716, 239.797 309.846, 242.037 312.544 C 244.688 315.738, 254.213 313.591, 259.043 308.711 C 261.357 306.373, 261.696 304.921, 262.807 292.621 C 264.231 276.858, 268.366 259.423, 273.002 249.636 C 278.714 237.574, 288.038 230.311, 290.827 235.750 C 294.888 243.671, 291.372 270.481, 284.502 283.975 C 281.506 289.858, 278.799 292.262, 271.603 295.427 C 264.962 298.347, 263.078 300.279, 263.032 304.215 C 262.988 307.964, 265.968 309.315, 273.138 308.796 C 284.595 307.968, 306.415 294.451, 324.250 277.133 L 336 265.724 336 270.652 C 336 274.920, 336.815 279.032, 339.571 288.672 C 340.091 290.491, 338.838 291.921, 331.846 297.485 C 311.565 313.626, 294.497 321.709, 269.500 327.011 C 251.834 330.758, 248.769 331.897, 246.328 335.622 C 243.789 339.497, 243.880 347.092, 246.500 350.040 C 249.984 353.961, 256.798 356.371, 264 356.231 C 270.391 356.106, 304.659 349.609, 347 340.495 C 358.825 337.950, 369.977 335.733, 371.781 335.569 C 373.586 335.405, 375.306 335.027, 375.604 334.729 C 376.880 333.453, 397.556 336.840, 444.500 346.015 C 500.747 357.008, 501.851 357.162, 515.082 355.835 C 532.526 354.085, 546.862 347.644, 555.725 337.575 C 560.384 332.282, 564 323.863, 564 318.307 C 564 315.965, 564.904 313.504, 566.562 311.330 C 571.765 304.508, 574.422 297.066, 574.671 288.619 C 574.898 280.869, 574.957 280.704, 578.201 278.743 C 589.868 271.689, 608.365 254.390, 617.340 242.140 C 622.360 235.289, 623.047 232.258, 620.171 229.655 C 617.208 226.973, 614.130 227.646, 610.665 231.731 C 598.875 245.629, 579.664 262.503, 569.855 267.575 L 566.765 269.173 549.312 251.836 C 539.713 242.301, 531.166 233.188, 530.318 231.584 C 528.183 227.545, 529.091 220.881, 532.359 216.596 C 535.285 212.760, 542.154 209.662, 546.605 210.170 C 550.235 210.584, 552.715 215.255, 553.296 222.769 C 553.718 228.225, 555 231.261, 555 226.803 C 555 221.368, 552.874 213.495, 550.814 211.302 C 548.167 208.485, 544.013 208.346, 538.500 210.890 C 529.049 215.252, 525.346 224.939, 530.050 233 C 532.112 236.536, 565.798 269.959, 567.325 269.986 C 569.013 270.015, 581.797 261.112, 590.645 253.744 C 595.675 249.556, 603.036 242.276, 607.003 237.565 C 610.970 232.854, 614.981 229, 615.917 229 C 619.059 229, 621.347 231.481, 620.675 234.159 C 619.772 237.756, 610.729 249.352, 602.010 258.092 C 594.868 265.252, 579.897 277.159, 575.500 279.176 C 573.736 279.985, 573.500 281.066, 573.500 288.318 C 573.500 295.598, 573.122 297.310, 570.207 303.231 C 564.170 315.493, 552.578 323.006, 539.712 322.994 C 530.714 322.986, 526.127 321.391, 521.339 316.603 C 514.289 309.552, 514.211 300.981, 521.129 293.476 C 524.987 289.290, 526.050 288.726, 543.957 281.353 L 547.413 279.929 529.226 262.215 C 508.796 242.315, 506.650 239.109, 506.656 228.500 C 506.663 217.864, 513.332 208.915, 525.843 202.757 C 531.750 199.848, 533.370 199.501, 540.979 199.512 C 547.816 199.522, 550.315 199.958, 553.624 201.718 C 561.805 206.071, 565.613 213.589, 564.773 223.727 C 564.285 229.609, 561.953 233, 558.395 233 C 557.132 233, 555.601 232.213, 554.992 231.250 C 554.349 230.235, 554.038 230.100, 554.251 230.929 C 554.895 233.431, 557.649 234.509, 560.676 233.445 C 564.880 231.966, 566.159 228.609, 565.700 220.261 C 565.176 210.734, 561.691 204.746, 554.520 201.055 C 550.333 198.900, 548.216 198.500, 540.983 198.500 C 533.085 198.500, 531.807 198.797, 524.783 202.266 C 515.112 207.042, 508.681 213.850, 506.387 221.740 C 504.561 228.023, 505.015 232.840, 508.114 240.044 C 510.609 245.842, 510.343 246.497, 500.206 259.554 C 492.047 270.062, 481.711 280.216, 474 285.296 C 467.877 289.329, 457.946 292.349, 453.777 291.444 C 447.936 290.176, 444 281.523, 444 269.951 C 444 265.036, 444.023 265, 447.250 264.983 C 458.502 264.923, 474.069 258.821, 482.073 251.335 C 491.680 242.349, 495.130 230.142, 490.400 221.878 C 487.956 217.609, 480.480 213.787, 473.428 213.202 C 454.660 211.646, 434.963 222.705, 427.256 239.127 C 421.008 252.438, 421.274 251.367, 420.741 265.326 L 420.441 273.152 415.046 279.629 C 405.316 291.308, 390.887 302.216, 380.687 305.604 C 373.338 308.045, 362.677 307.918, 356.911 305.321 C 344.699 299.822, 336.981 284.778, 337.015 266.540 C 337.066 238.772, 353.423 218.436, 378.630 214.800 C 398.586 211.922, 410.003 221.159, 405.525 236.561 C 401.444 250.601, 387.504 260.108, 366.179 263.394 L 358.500 264.577 358.198 270.354 C 357.632 281.191, 362.104 290.984, 368.332 292.547 C 372.407 293.570, 381.214 291.191, 388.074 287.213 C 395.222 283.069, 409.131 269.811, 416.426 260.189 C 419.058 256.718, 421.032 253.699, 420.814 253.480 C 420.595 253.262, 418.035 256.205, 415.125 260.021 C 402.609 276.432, 388.453 287.734, 376.815 290.606 C 371.152 292.003, 369.849 292.037, 367.373 290.850 C 365.793 290.093, 364.500 289.003, 364.500 288.430 C 364.500 287.856, 367.875 284.530, 372 281.040 C 391.588 264.464, 420.362 233.052, 435.618 211.589 L 442.434 202 466.753 202 L 491.071 202 493.036 197.417 C 494.116 194.896, 495 192.655, 495 192.435 C 495 192.216, 484.475 191.916, 471.612 191.768 L 448.224 191.500 470.654 162.500 C 482.990 146.550, 499.005 125.625, 506.241 116 C 513.477 106.375, 523.696 94.225, 528.949 88.999 C 537.235 80.757, 540.438 78.403, 553.134 71.229 C 561.183 66.680, 568.935 61.792, 570.360 60.367 C 573.895 56.833, 574.653 51.999, 572.542 46.470 C 568.823 36.732, 561.191 35.256, 546.500 41.435 C 527.191 49.555, 522.582 51.135, 515.174 52.171 C 506.608 53.370, 506.520 53.351, 456.500 40.006 C 417.525 29.608, 383.632 21.245, 378.500 20.759 C 375.750 20.499, 368.971 20.635, 363.436 21.061 M 345.500 38.109 C 315.212 42.477, 287.769 62.573, 275.489 89.378 C 272.585 95.716, 269 108.409, 269 112.351 C 269 113.557, 269.906 113.461, 274.250 111.799 C 280.843 109.277, 290.222 109.738, 295.226 112.830 C 305.540 119.205, 306.519 136.204, 297.966 160.435 C 296.335 165.058, 295 169.255, 295 169.762 C 295 171.530, 310.560 177.905, 318.959 179.580 C 328.809 181.543, 343.832 181.099, 353.500 178.557 C 374.727 172.978, 392.211 157.486, 399.758 137.571 C 400.672 135.159, 401.545 128.407, 401.900 121 L 402.500 108.500 407.250 108.195 L 412 107.890 412 116.004 C 412 139.243, 404.967 156.362, 389.474 170.831 C 381.375 178.395, 370.854 184.425, 359.500 188.012 C 350.579 190.830, 330.488 191.835, 319.227 190.026 C 311.067 188.715, 297.619 184.248, 293.817 181.584 C 290.343 179.151, 289.630 179.563, 286.607 185.750 C 282.626 193.897, 272.349 209.328, 265.676 217.176 L 260 223.852 260 235.581 L 260 247.310 263.836 241.405 C 268.475 234.266, 275.632 227.524, 281.310 224.946 C 286.033 222.802, 295.870 222.352, 299.316 224.122 C 309.567 229.389, 314.209 246.121, 310.640 264.936 C 309.760 269.577, 309.230 273.563, 309.463 273.796 C 309.696 274.029, 316.212 267.925, 323.943 260.232 C 331.674 252.538, 338 246.603, 338 247.041 C 338 249.287, 308.666 276.999, 307.511 275.845 C 307.271 275.604, 307.722 272.953, 308.515 269.953 C 312.128 256.285, 311.225 241.905, 306.168 232.584 C 302.661 226.119, 299.087 224.008, 291.640 224.004 C 280.743 223.997, 271.577 230.698, 262.832 245.065 C 259.609 250.361, 259.081 250.830, 258.478 248.932 C 258.101 247.744, 258.121 241.312, 258.522 234.639 L 259.251 222.506 264.186 217.107 C 275.852 204.342, 291.504 176.641, 297.940 157.367 C 305.590 134.461, 304.250 119.578, 293.997 113.554 C 288.985 110.610, 278.079 110.727, 272.277 113.786 C 248.660 126.240, 237.543 175.537, 239.419 259.500 C 240.186 293.880, 241.260 309.404, 243.017 311.520 C 245.690 314.741, 256.306 311.636, 259.370 306.737 C 260.143 305.501, 261.069 300.253, 261.439 295.005 C 263.806 261.451, 276.073 233, 288.173 233 C 290.237 233, 291.290 233.635, 291.900 235.250 C 296.262 246.781, 291.980 274.497, 283.880 287.169 C 280.576 292.338, 277.889 294.422, 271.729 296.596 C 266.516 298.435, 264 300.693, 264 303.533 C 264 307.208, 266.388 308.333, 272.927 307.740 C 284.806 306.663, 308.528 291.622, 326.250 273.929 C 334.665 265.528, 336.003 263.737, 336.024 260.848 C 336.038 259.006, 336.539 255.475, 337.138 253 C 337.738 250.525, 338.353 247.574, 338.505 246.442 C 338.845 243.914, 344.209 234.962, 348.783 229.288 C 352.984 224.077, 361.164 218.556, 368.751 215.812 C 372.999 214.275, 377.110 213.702, 384.500 213.616 C 393.123 213.516, 395.086 213.813, 398.756 215.773 C 401.097 217.024, 403.568 218.936, 404.247 220.023 C 404.926 221.111, 405.793 222, 406.175 222 C 406.557 222, 410.335 217.613, 414.571 212.250 L 422.272 202.500 402.537 202.229 C 386.059 202.002, 382.892 201.725, 383.343 200.550 C 383.640 199.775, 384.183 197.544, 384.549 195.590 L 385.216 192.038 407.320 191.769 L 429.424 191.500 451.462 161.348 C 479.861 122.492, 488.833 111.249, 503.500 96.133 C 518.761 80.405, 528.981 72.746, 546.500 63.905 C 554.200 60.020, 561.288 56.132, 562.250 55.265 C 564.400 53.330, 564.502 50.662, 562.490 48.992 C 560.036 46.955, 554.332 48.359, 540.883 54.311 C 512.933 66.679, 503.255 67.934, 478.500 62.398 C 474.650 61.536, 466.550 59.785, 460.500 58.505 C 454.450 57.225, 436.900 53.247, 421.500 49.665 C 366.330 36.833, 360.499 35.946, 345.500 38.109 M 98.238 88.110 C 75.904 91.831, 56.716 105.539, 47.466 124.380 C 43.042 133.391, 41.689 140.351, 42.180 151.578 C 42.537 159.743, 43 161.615, 46.314 168.320 C 52.254 180.339, 61.845 187.378, 76.517 190.486 C 85.237 192.333, 90.678 192.351, 99.122 190.562 C 113.706 187.470, 125.512 178.539, 131.270 166.241 C 133.923 160.574, 134.491 158.026, 134.832 150.250 L 135.239 141 132.222 141 L 129.205 141 128.842 149.250 C 128.426 158.715, 126.228 164.203, 120.065 171.162 C 108.877 183.796, 87.748 188.466, 70.798 182.051 C 58.473 177.385, 49.215 164.734, 48.249 151.236 C 46.363 124.881, 67.041 102.034, 96.485 97.939 C 104.464 96.829, 107.544 97.384, 160.500 109.479 C 171.500 111.991, 183.220 114.311, 186.544 114.634 C 193.902 115.349, 202.076 113.432, 213.317 108.357 C 222.658 104.140, 227.500 103.488, 227.500 106.449 C 227.500 107.902, 225.178 109.574, 218.395 113.008 C 213.387 115.543, 207.075 119.243, 204.368 121.230 C 192.851 129.684, 177.657 147.561, 153.572 180.994 L 145.643 192 132.429 192 C 121.301 192, 119.118 192.250, 118.607 193.582 C 117.027 197.699, 117.568 197.926, 129.661 198.218 L 141.322 198.500 133.018 209 C 128.452 214.775, 117.467 226.754, 108.608 235.620 C 84.562 259.684, 71.041 268.837, 53.336 273.033 C 37.438 276.801, 36.117 277.213, 34.643 278.866 C 32.840 280.888, 32.381 283.690, 33.288 287.138 C 34.030 289.957, 39.835 293, 44.474 293 C 45.812 293, 61.215 290.053, 78.704 286.450 C 96.192 282.848, 112.975 279.910, 116 279.921 C 119.025 279.932, 130.950 281.756, 142.500 283.976 C 192.640 293.610, 191.615 293.463, 200.155 292.219 C 216.882 289.781, 227.287 281.366, 228.622 269.196 C 229.318 262.855, 226.031 256.387, 220.500 253.214 C 214.514 249.779, 206.140 250.432, 199.748 254.830 C 194.719 258.289, 194.005 259.930, 196.594 262.078 C 197.944 263.198, 198.923 262.987, 202.991 260.700 C 211.535 255.898, 220.015 257.517, 221.819 264.295 C 224.330 273.732, 215.814 280.933, 201.908 281.133 C 198.934 281.176, 181.547 278.239, 163.272 274.606 C 144.663 270.906, 127.414 268, 124.065 268 C 117.262 268, 101.328 271.901, 71.500 280.868 C 47.971 287.941, 45.387 288.478, 41.667 287.063 C 37.569 285.505, 38.517 282.716, 43.511 281.641 C 66.019 276.796, 81.667 269.262, 102.967 253.013 C 118.293 241.321, 135.693 223.399, 148.333 206.284 L 154.452 198 169.191 198 C 182.739 198, 184.013 197.844, 184.965 196.066 C 186.991 192.280, 186.325 192.061, 171.938 191.777 L 157.876 191.500 176.008 168 C 205.443 129.852, 206.247 128.876, 211.483 124.974 C 214.242 122.918, 219.875 119.357, 224 117.061 C 232.830 112.147, 234 110.843, 234 105.920 C 234 96.750, 227.115 95.250, 213.269 101.403 C 208.741 103.415, 202.610 105.510, 199.644 106.058 C 193.773 107.143, 197.940 108.066, 138.500 92.521 C 116.478 86.762, 110.357 86.091, 98.238 88.110 M 647 88.545 C 621.010 94.086, 601.286 111.169, 594.596 133.932 C 592.298 141.753, 592.470 156.541, 594.941 163.574 C 598.806 174.569, 607.959 183.926, 618.875 188.040 C 643.995 197.506, 671.435 188.111, 682.133 166.381 C 684.973 160.613, 685.476 158.430, 685.830 150.352 L 686.239 141 683.245 141 L 680.251 141 679.818 149.250 C 679.452 156.217, 678.860 158.483, 676.015 163.821 C 668.451 178.011, 653.021 185.901, 635.082 184.752 C 620.324 183.806, 608.466 176.369, 602.530 164.337 C 594.706 148.478, 600.394 125.505, 615.420 112.279 C 621.899 106.576, 627.257 103.575, 636.610 100.410 C 648.917 96.245, 655.573 96.662, 685 103.440 C 719.534 111.396, 736.935 114.982, 741.040 114.992 C 746.387 115.004, 754.842 112.520, 764.958 107.965 C 774.559 103.642, 778.500 103.184, 778.500 106.391 C 778.500 107.767, 776.036 109.541, 769.473 112.891 C 748.107 123.799, 739.043 133.304, 704.049 181.500 L 696.788 191.500 683.214 192 L 669.640 192.500 668.914 195.220 L 668.189 197.940 680.271 198.220 L 692.353 198.500 683.935 209 C 672.341 223.460, 651.591 244.566, 639 254.704 C 625.919 265.236, 614.319 271.050, 600.528 273.983 C 588.517 276.537, 585.914 277.692, 584.228 281.210 C 582.182 285.479, 583.635 288.930, 588.386 291.088 C 590.649 292.115, 593.719 292.966, 595.209 292.978 C 596.699 292.990, 609.974 290.498, 624.709 287.441 C 666.429 278.784, 665.241 278.923, 678.328 281.173 C 684.473 282.229, 699.625 285.086, 712 287.522 C 740.151 293.064, 744.186 293.521, 752.355 292.099 C 761.282 290.544, 767.063 287.905, 772.482 282.910 C 785.588 270.829, 779.368 251, 762.473 251 C 757.303 251, 750.370 253.912, 746.999 257.501 L 744.969 259.662 746.987 261.488 C 748.950 263.264, 749.140 263.242, 753.888 260.657 C 764.162 255.066, 773 258.354, 773 267.768 C 773 271.575, 772.485 272.749, 769.642 275.431 C 765.699 279.150, 760.122 281.035, 752.780 281.132 C 749.876 281.170, 732.491 278.231, 714.148 274.601 C 695.804 270.970, 678.254 268.001, 675.148 268.001 C 668.059 268.003, 654.799 271.201, 625.500 279.976 C 598.726 287.994, 596.423 288.492, 592.667 287.063 C 588.569 285.505, 589.517 282.716, 594.511 281.641 C 612.206 277.832, 622.610 273.605, 638.412 263.804 C 660.070 250.372, 684.260 227.310, 700.364 204.743 L 705.176 198 720.113 198 L 735.050 198 736.025 195.435 C 736.561 194.024, 737 192.686, 737 192.462 C 737 192.238, 730.652 191.930, 722.893 191.777 L 708.785 191.500 721.576 175 C 728.611 165.925, 737.947 153.775, 742.322 148 C 757.637 127.783, 762.137 123.542, 775.500 116.727 C 782.734 113.038, 785 110.574, 785 106.395 C 785 101.722, 783.710 99.537, 780.058 98.024 C 776.411 96.513, 773.882 97.069, 763.833 101.589 C 750.259 107.694, 747.932 107.755, 727.875 102.526 C 671.561 87.845, 667.878 86.999, 660.637 87.079 C 656.712 87.123, 650.575 87.783, 647 88.545 M 279.326 122.187 C 274.207 124.662, 267.843 142.303, 264.492 163.307 C 263.067 172.242, 260.067 199.029, 260.020 203.250 C 260.009 204.213, 260.498 205, 261.107 205 C 261.716 205, 261.967 204.356, 261.665 203.569 C 260.753 201.194, 264.769 164.367, 266.670 157.659 C 267.103 156.135, 267.629 156.479, 269.732 159.659 C 271.128 161.772, 273.789 165.099, 275.645 167.052 L 279.020 170.605 274.633 179.618 C 272.220 184.575, 268.380 191.703, 266.099 195.458 C 263.818 199.213, 262.153 202.486, 262.399 202.732 C 262.645 202.978, 264.924 199.652, 267.463 195.340 C 280.177 173.754, 288.986 150.061, 289.774 135.336 C 290.246 126.506, 290.169 126.078, 287.677 123.586 C 284.928 120.837, 282.841 120.487, 279.326 122.187 M 279.093 123.647 C 277.799 124.554, 275.448 128.146, 273.868 131.631 L 270.995 137.966 272.962 143.143 C 275.118 148.815, 281.501 159, 282.901 159 C 284.376 159, 288.269 142.978, 288.773 134.828 C 289.220 127.608, 289.096 127.005, 286.669 124.578 C 283.658 121.567, 282.301 121.400, 279.093 123.647 M 460.715 215.040 C 448.064 217.167, 434.907 226.927, 428.680 238.805 C 423.354 248.966, 421.728 256.575, 422.229 269 C 423.086 290.268, 432.106 303.804, 447.556 307.012 C 466.917 311.031, 491.593 294.224, 513.078 262.385 C 515.785 258.373, 517.983 254.732, 517.962 254.295 C 517.942 253.858, 516.475 251.807, 514.702 249.738 L 511.480 245.975 504.990 255.238 C 496.726 267.032, 481.410 282.374, 473.069 287.213 C 466.042 291.290, 457.605 293.511, 452.992 292.498 C 447.100 291.204, 442.636 281.111, 443.198 270.354 L 443.500 264.577 451.439 263.354 C 461.394 261.819, 469.987 258.738, 476.734 254.283 C 487.071 247.458, 491.464 239.623, 490.800 229.198 C 490.413 223.123, 490.126 222.448, 486.651 219.444 C 480.845 214.425, 472.649 213.033, 460.715 215.040 M 379 223.117 C 372.506 225.688, 363.847 238.180, 361.038 249.032 C 360.402 251.489, 359.634 254.347, 359.331 255.382 C 358.838 257.071, 359.171 257.190, 362.586 256.550 C 375.852 254.061, 390.910 238.892, 390.978 227.950 C 390.990 225.998, 390.460 223.860, 389.800 223.200 C 388.373 221.773, 382.509 221.727, 379 223.117 M 464 223.118 C 460.716 224.421, 455.399 229.536, 452.298 234.377 C 449.556 238.658, 445.634 248.640, 444.643 253.861 L 444.006 257.222 447.698 256.529 C 460.739 254.082, 476 238.637, 476 227.884 C 476 225.968, 475.460 223.860, 474.800 223.200 C 473.372 221.772, 467.506 221.728, 464 223.118 M 376.883 225.859 C 370.028 230.207, 362.999 242.355, 361.258 252.865 C 360.732 256.040, 360.836 256.189, 363.101 255.508 C 376.353 251.521, 390 237.684, 390 228.233 C 390 222.285, 384.180 221.232, 376.883 225.859 M 462.871 225.006 C 458.112 227.521, 454.319 232.118, 450.911 239.500 C 447.493 246.904, 444.795 256, 446.016 256 C 446.516 256, 449.415 255.068, 452.459 253.929 C 465.575 249.022, 479.385 229.785, 473.800 224.200 C 472.042 222.442, 467.023 222.812, 462.871 225.006 M 515.474 260.783 C 500.459 283.578, 482.904 300.042, 467.146 306.107 C 460.048 308.839, 447.318 309.182, 441.860 306.790 C 432.121 302.520, 424.657 291.823, 421.546 277.677 C 420.934 274.893, 420.798 274.987, 411.882 284.408 C 396.294 300.879, 382.891 308.262, 368.500 308.303 C 359.869 308.328, 355.455 306.937, 350.240 302.549 C 347.285 300.062, 347.204 300.052, 344.870 301.880 C 340.008 305.689, 320.207 317.463, 310.031 322.596 C 297.172 329.082, 284.867 333.266, 269.298 336.446 C 254.554 339.458, 254 339.680, 254 342.584 C 254 345.820, 257.710 348.023, 264.173 348.624 C 270.005 349.166, 269.121 349.395, 316.500 335.051 C 347.942 325.531, 374.121 318.667, 385.638 316.921 C 396.121 315.333, 402.308 316.246, 461.064 328.053 C 485.574 332.978, 508.892 337.418, 512.882 337.919 C 529.670 340.027, 547.463 333.740, 552.550 323.903 L 553.998 321.103 550.299 322.649 C 548.098 323.568, 543.697 324.183, 539.433 324.166 C 528.541 324.123, 520.633 320.121, 516.872 312.748 C 515.726 310.503, 513.488 307.278, 511.899 305.583 C 510.310 303.887, 509.007 302.200, 509.005 301.834 C 509.002 301.468, 510.913 299.685, 513.250 297.872 C 515.587 296.060, 519.459 292.887, 521.853 290.822 C 524.247 288.756, 528.747 286.142, 531.853 285.012 C 543.335 280.833, 545.003 279.875, 544.013 278.025 C 543.512 277.088, 537.732 271.538, 531.170 265.693 L 519.240 255.065 515.474 260.783 M 363.250 264.807 C 359.021 265.114, 359 265.134, 359 269.057 C 359 271.226, 359.359 273, 359.797 273 C 360.775 273, 368.542 265.143, 367.935 264.768 C 367.696 264.621, 365.587 264.638, 363.250 264.807 M 642 305 L 642 321 651 321 C 659.933 321, 660 320.981, 660 318.500 C 660 316.090, 659.767 316, 653.500 316 L 647 316 647 302.500 L 647 289 644.500 289 L 642 289 642 305 M 662.667 289.667 C 662.300 290.033, 662 297.233, 662 305.667 L 662 321 671.570 321 C 680.922 321, 681.132 320.949, 680.820 318.750 C 680.529 316.706, 679.883 316.473, 673.750 316.204 L 667 315.909 667 302.454 C 667 290.074, 666.854 289, 665.167 289 C 664.158 289, 663.033 289.300, 662.667 289.667 M 688.620 290.520 C 686.618 291.208, 684.352 292.293, 683.583 292.931 C 679.315 296.473, 677.610 307.411, 680.464 312.931 C 682.950 317.738, 687.665 321, 692.126 321 C 696.127 321, 702 318.678, 702 317.097 C 702 316.628, 701.312 315.674, 700.470 314.975 C 699.290 313.996, 698.366 313.968, 696.423 314.853 C 692.446 316.665, 690.066 316.220, 686.923 313.077 C 680.637 306.791, 684.834 294.295, 692.914 295.241 C 694.886 295.472, 697.104 295.850, 697.843 296.081 C 699.774 296.684, 701.779 293.379, 700.350 291.950 C 698.319 289.919, 692.448 289.204, 688.620 290.520 M 542.853 294.855 C 534.850 298.039, 532 300.429, 532 303.955 C 532 307.501, 533.714 309, 537.766 309 C 541.999 309, 544.316 307.769, 546.892 304.152 C 549.026 301.154, 551.248 293.265, 550.145 292.599 C 549.790 292.385, 546.509 293.400, 542.853 294.855 M 126 294.880 C 112.407 299.328, 102.183 311.822, 97.260 330 C 94.626 339.727, 94.937 363.699, 97.835 374.354 C 105.718 403.335, 125.826 427.422, 153.840 441.442 C 171.907 450.485, 192.610 455, 216 455 C 241.224 455, 260.636 450.712, 303.587 435.652 C 338.070 423.561, 346.997 420.823, 347.010 422.331 C 347.031 424.858, 351.994 433.987, 355.391 437.748 C 357.430 440.005, 361.677 442.955, 365.238 444.589 C 370.771 447.127, 372.606 447.456, 381 447.418 C 388.479 447.385, 391.748 446.886, 396.365 445.073 C 415.328 437.628, 417.228 417.653, 399.790 409.068 C 391.417 404.946, 383.745 404.287, 369.135 406.433 C 362.884 407.351, 357.559 407.892, 357.301 407.635 C 356.571 406.905, 360.779 397.979, 363.590 394.293 C 370.438 385.315, 388.880 374.790, 405.628 370.301 C 414.543 367.911, 417.293 367.647, 434 367.577 C 454.485 367.492, 460.595 368.347, 476.596 373.539 C 509.820 384.321, 535.857 407.826, 553.980 443.397 C 558.805 452.867, 560.022 454.546, 562.256 454.810 C 564.168 455.037, 565.329 454.427, 566.558 452.552 C 568.191 450.059, 568.124 449.739, 564.284 441.741 C 542.923 397.249, 508.965 369.592, 463.688 359.812 C 449.914 356.837, 421.737 356.589, 409.204 359.334 C 386.768 364.247, 365.924 375.470, 356.027 387.966 C 352.135 392.880, 347.944 402.002, 347.270 407.024 C 346.749 410.910, 346.743 410.915, 339.124 413.149 C 334.931 414.379, 324.525 417.816, 316 420.786 C 279.153 433.627, 270.788 436.349, 258.500 439.493 C 240.208 444.175, 228.862 445.383, 209.644 444.698 C 158.854 442.885, 122.503 417.859, 108.410 375 C 105.868 367.270, 105.610 365.141, 105.557 351.500 C 105.506 338.164, 105.773 335.671, 107.960 329.026 C 113.395 312.513, 122.875 303.858, 135.656 303.737 C 147.743 303.623, 158.643 310.093, 162.852 319.878 C 164.024 322.603, 165.441 328.132, 166 332.166 C 166.749 337.571, 167.569 339.960, 169.119 341.250 C 171.801 343.482, 172.551 343.449, 175.010 340.990 C 177.149 338.851, 177.130 337.315, 174.816 325 C 172.505 312.698, 164.530 302.441, 153.218 297.222 C 148.524 295.057, 145.798 294.537, 138 294.323 C 132.775 294.180, 127.375 294.430, 126 294.880 M 123.176 297.092 C 112.183 301.434, 102.816 313.861, 98.372 330 C 95.694 339.725, 95.904 362.795, 98.765 373.175 C 108.053 406.878, 130.046 431.091, 163.701 444.666 C 178.202 450.516, 191.095 453.022, 210 453.667 C 237.808 454.615, 254.782 451.318, 296 436.961 C 325.393 426.723, 346.269 420.048, 347.166 420.603 C 347.545 420.837, 348.388 422.709, 349.041 424.764 C 353.506 438.812, 364.529 446.266, 381 446.374 C 391.912 446.446, 398.713 444.206, 404.498 438.636 C 414.779 428.735, 412.107 416.113, 398.298 409.358 C 393.637 407.077, 391.320 406.603, 384.594 406.556 C 375.774 406.495, 364.940 407.583, 359.856 409.041 C 358.083 409.550, 356.428 409.761, 356.178 409.512 C 355.928 409.262, 356.296 407.014, 356.995 404.518 C 361.676 387.801, 388.228 371.147, 416.880 366.957 C 427.291 365.435, 452.760 366.251, 462.500 368.419 C 488.379 374.178, 508.582 385.285, 527.020 403.886 C 538.582 415.551, 547.458 427.971, 555.065 443.130 C 557.747 448.474, 560.408 453.134, 560.979 453.487 C 563.081 454.786, 566 452.925, 566 450.287 C 566 446.742, 558.203 431.541, 550.209 419.500 C 542.219 407.465, 523.864 388.680, 513.227 381.649 C 480.061 359.729, 438.199 352.598, 401.049 362.540 C 373.127 370.012, 350.818 388.814, 348.419 406.897 L 347.803 411.546 327.151 418.336 C 315.793 422.070, 300.875 427.148, 294 429.619 C 262.048 441.103, 244.195 445.062, 221.314 445.740 C 197.501 446.445, 183.201 444.125, 164.247 436.482 C 141.382 427.262, 121.486 408.581, 111.814 387.249 C 97.097 354.793, 103.974 313.850, 125.728 304.408 C 131.414 301.940, 142.341 302.161, 148.445 304.868 C 160.084 310.028, 164.324 315.989, 166.846 330.739 L 168.515 340.500 171.507 340.500 C 174.310 340.500, 174.519 340.232, 174.806 336.279 C 175.230 330.437, 173.470 321.706, 170.609 315.458 C 167.374 308.391, 161.193 302.453, 153.151 298.688 C 144.250 294.520, 131.417 293.837, 123.176 297.092 M 534.250 300.115 C 532.472 301.943, 532.687 306.666, 534.582 307.393 C 537.896 308.665, 541.083 307.897, 544.234 305.067 C 546.769 302.790, 547.234 301.863, 546.309 300.926 C 544.550 299.142, 535.771 298.551, 534.250 300.115 M 625.332 327.790 C 615.156 331.426, 608.212 339.224, 605.884 349.628 C 605.129 353, 604.159 355, 603.279 355 C 600.339 355, 591.005 360.229, 586.991 364.125 C 575.084 375.680, 574.723 392.761, 586.083 407.105 L 589.198 411.038 585.500 415.132 C 580.475 420.693, 578.048 426.424, 578.022 432.790 C 577.972 444.896, 587.759 454.517, 609.783 464.012 C 619.943 468.393, 630.591 472.035, 632.915 471.925 C 633.787 471.884, 630.225 470.387, 625 468.599 C 593.500 457.819, 578.984 446.758, 579.010 433.554 C 579.022 427.451, 582.305 419.882, 587.375 414.270 L 590.944 410.320 587.942 407.445 C 586.291 405.863, 583.604 401.894, 581.970 398.625 C 576.701 388.080, 578.333 375.448, 586.104 366.619 C 589.903 362.303, 600.482 356, 603.927 356 C 605.067 356, 606.038 354.083, 607.262 349.418 C 610.127 338.492, 616.275 331.913, 626.853 328.453 C 638.142 324.761, 651.533 328.597, 661.913 338.498 C 672.400 348.501, 676.958 360.510, 676.985 378.205 L 677 387.909 680.750 388.490 C 697.227 391.042, 703.297 393.603, 712.026 401.685 C 720.304 409.348, 724.377 417.768, 724.855 428.204 C 726.164 456.801, 701.927 475.938, 664.338 475.987 C 655.639 475.998, 644.360 474.569, 636.598 472.471 C 634.965 472.030, 634.838 472.120, 636.026 472.876 C 636.865 473.411, 641.345 474.617, 645.982 475.557 C 657.341 477.858, 678.183 477.107, 688.993 474.007 C 704.786 469.478, 716.579 460.329, 722.366 448.115 C 725.287 441.949, 725.500 440.753, 725.500 430.500 C 725.500 420.360, 725.270 419.031, 722.564 413.500 C 720.949 410.200, 717.124 404.998, 714.064 401.940 C 705.800 393.683, 697.240 389.853, 681.750 387.483 L 678 386.909 678 377.165 C 678 361.366, 673.951 349.832, 664.801 339.566 C 654.789 328.333, 637.909 323.297, 625.332 327.790 M 627.885 335.318 C 625.897 336.063, 622.898 337.649, 621.221 338.843 C 617.836 341.253, 614 348.293, 614 352.094 C 614 354.366, 614.530 354.641, 620.831 355.633 C 634.923 357.852, 648.194 367.352, 657.964 382.215 C 661.429 387.486, 662.821 388.846, 664.439 388.539 C 665.573 388.324, 667.288 388.115, 668.250 388.074 C 669.781 388.009, 670 386.879, 670 379.049 C 670 363.547, 666.285 352.657, 658.131 344.255 C 650.036 335.913, 636.768 331.993, 627.885 335.318 M 628.558 336.432 C 623.034 338.484, 619.859 341.060, 617.266 345.594 C 614.064 351.195, 614.248 354, 617.818 354 C 621.621 354, 630.453 356.693, 636.209 359.608 C 642.613 362.850, 653.179 372.938, 658.248 380.649 C 661.974 386.316, 662.778 387, 665.712 387 L 669 387 669 379.136 C 669 364.347, 665.748 354.399, 658.104 345.806 C 650.513 337.273, 637.452 333.129, 628.558 336.432 M 602.766 363.644 C 592.622 367.152, 586.063 375.825, 586.022 385.783 C 585.993 392.771, 589.187 398.889, 596.670 406.180 C 602.181 411.548, 614.694 419.040, 618 418.949 C 618.825 418.927, 616.692 417.609, 613.260 416.020 C 605.813 412.574, 596.408 405.535, 592.628 400.579 C 588.274 394.870, 586.744 390.214, 587.191 384.029 C 588.588 364.717, 614.399 356.588, 634.267 369.203 C 641.393 373.728, 649.967 383.703, 655.836 394.298 C 661.929 405.296, 663.464 409.736, 661.847 411.684 C 659.831 414.113, 648.616 418.820, 642 420.013 C 636.151 421.068, 632.742 420.963, 622.610 419.420 C 619.857 419.001, 619.760 419.062, 621.766 419.947 C 625.643 421.659, 636.225 422.259, 642.500 421.124 C 645.800 420.528, 651.875 418.332, 656 416.245 C 663.030 412.689, 663.491 412.255, 663.362 409.312 C 663.074 402.775, 652.030 384.133, 643 374.942 C 634.978 366.777, 626.197 362.723, 615.655 362.319 C 609.991 362.102, 606.054 362.506, 602.766 363.644 M 679.649 404.626 C 678.766 409.507, 677.528 416.875, 676.897 421 C 675.370 430.990, 676.335 451.582, 678.725 460 C 680.554 466.442, 680.601 466.499, 684.035 466.371 C 692.533 466.055, 705.275 458.595, 711.697 450.175 C 721.288 437.600, 719.609 418.609, 707.867 406.867 C 702.958 401.958, 693.094 397.154, 686.262 396.345 L 681.253 395.751 679.649 404.626 M 680.638 405.645 C 677.711 421.347, 677.015 427.323, 677.042 436.500 C 677.070 445.623, 678.876 458.135, 680.921 463.371 C 681.921 465.931, 682.391 466.174, 685.271 465.620 C 690.745 464.567, 703.014 457.986, 707.074 453.926 C 716.244 444.756, 719.344 431.188, 714.936 419.507 C 710.693 408.263, 699.284 399.508, 686.134 397.405 L 682.289 396.791 680.638 405.645 M 696.656 411.133 C 695.642 411.722, 694.174 413.733, 693.393 415.602 C 689.614 424.646, 701.037 431.963, 708.025 424.975 C 710.948 422.052, 710.701 415.610, 707.545 412.455 C 704.901 409.810, 699.962 409.211, 696.656 411.133 M 696.635 413.073 C 694.602 414.671, 694 416.027, 694 419 C 694 421.973, 694.602 423.329, 696.635 424.927 C 698.084 426.067, 700.273 427, 701.500 427 C 702.727 427, 704.916 426.067, 706.365 424.927 C 708.398 423.329, 709 421.973, 709 419 C 709 416.027, 708.398 414.671, 706.365 413.073 C 704.916 411.933, 702.727 411, 701.500 411 C 700.273 411, 698.084 411.933, 696.635 413.073 M 365 415.865 L 356.500 417.540 356.614 421.270 C 356.772 426.447, 361.001 432.128, 367.292 435.614 C 371.955 438.198, 373.441 438.499, 381.500 438.493 C 388.865 438.487, 391.255 438.083, 394.655 436.271 C 402.962 431.843, 405.150 425.708, 400.425 420.093 C 395.381 414.098, 382.045 412.507, 365 415.865 M 367.196 416.504 C 355.664 418.594, 355.385 418.913, 358.956 425.914 C 364.623 437.021, 381.425 441.329, 394.463 435.018 C 402.152 431.296, 404.023 425.177, 399.008 420.161 C 393.946 415.099, 382.323 413.763, 367.196 416.504 M 602.607 423.250 C 602.263 424.488, 601.693 431.197, 601.341 438.160 L 600.700 450.820 606.821 453.910 C 610.188 455.609, 613.293 457, 613.721 457.001 C 614.150 457.001, 614.409 449.934, 614.298 441.296 L 614.097 425.590 609.798 423.340 C 604.351 420.489, 603.379 420.477, 602.607 423.250 M 603.374 425.814 C 602.994 427.841, 602.641 434.202, 602.591 439.949 L 602.500 450.399 607.970 453.147 C 610.978 454.658, 613.453 455.806, 613.470 455.697 C 613.486 455.589, 613.275 448.839, 613 440.699 L 612.500 425.898 608.283 424.013 L 604.067 422.128 603.374 425.814 M 645 427.522 L 639.500 428.617 639.511 442.558 C 639.518 450.768, 640.064 458.620, 640.839 461.657 L 642.155 466.814 648.262 467.889 C 651.620 468.481, 654.563 468.770, 654.802 468.532 C 655.040 468.294, 654.430 464.139, 653.447 459.299 C 652.447 454.381, 651.576 445.307, 651.472 438.726 C 651.369 432.250, 651.109 426.834, 650.893 426.689 C 650.677 426.545, 648.025 426.920, 645 427.522 M 644 428.882 L 640.500 429.500 640.167 438.500 C 639.849 447.110, 641.403 462.415, 642.829 464.724 C 643.202 465.326, 645.903 466.255, 648.831 466.787 L 654.155 467.755 653.502 465.152 C 651.514 457.231, 650.724 450.275, 650.618 439.757 C 650.489 426.914, 650.940 427.656, 644 428.882" stroke="none" fill="#faf8e8" fill-rule="evenodd"/></svg>